<svg width="64" height="64" viewBox="0 0 64 64" fill="none" xmlns="http://www.w3.org/2000/svg">
  <defs>
    <linearGradient id="g" x1="16" y1="10" x2="50" y2="56" gradientUnits="userSpaceOnUse">
      <stop offset="0" stop-color="#FFD45A"/>
      <stop offset="1" stop-color="#E08600"/>
    </linearGradient>
  </defs>
  <rect width="64" height="64" rx="14" fill="#0B0B0C"/>
  <!-- Head profile -->
  <path fill="url(#g)" d="M37 12
    c6 0 11 3 14 8
    c1 2 2 5 2 7
    c0 2 1 3 2 4
    c2 1 2 3 1 5
    c-1 1-1 2-1 3
    c0 1 1 2 1 3
    c0 1-1 2-2 2
    c-1 0-1 1-2 2
    c-1 3-4 6-7 7
    c-2 1-4 1-6 1
    l0 5
    c0 1-1 1-2 1
    c-1 0-2 0-2-1
    l0-5
    c-4-1-8-4-10-8
    c-1 1-3 1-4 0
    c-1-1-1-2 0-4
    c-2-2-3-4-4-6
    c-1 0-3-1-3-2
    c0-1 1-2 2-2
    c0-1 0-3 0-4
    c-1 0-2-1-2-3
    c0-1 1-2 3-2
    c1-2 2-4 4-6
    C30 14 33 12 37 12 Z"/>
  <!-- Circuit traces -->
  <g stroke="url(#g)" stroke-width="2" stroke-linecap="round" stroke-linejoin="round" fill="none">
    <path d="M6 22 H16 L21 27 H29"/>
    <path d="M5 33 H14 L19 38 H27"/>
    <path d="M8 44 H17 L22 39 H29"/>
  </g>
  <g fill="url(#g)">
    <circle cx="6" cy="22" r="2.6"/>
    <circle cx="5" cy="33" r="2.6"/>
    <circle cx="8" cy="44" r="2.6"/>
  </g>
</svg>
